<?xml version="1.0" encoding="UTF-8"?>
<svg width="18px" height="18px" viewBox="0 0 18 18" version="1.1" xmlns="http://www.w3.org/2000/svg" xmlns:xlink="http://www.w3.org/1999/xlink">
    <!-- Generator: Sketch 52.5 (67469) - http://www.bohemiancoding.com/sketch -->
    <title>Facebook__x28_alt_x29_</title>
    <desc>Created with Sketch.</desc>
    <g id="Page-1" stroke="none" stroke-width="1" fill="none" fill-rule="evenodd">
        <g id="1_Home-Copy" transform="translate(-708.000000, -626.000000)" fill="#7125FF">
            <g id="Group-3" transform="translate(489.000000, 64.000000)">
                <g id="Group" transform="translate(193.000000, 562.000000)">
                    <path d="M44,3 C44,1.42 42.58,0 41,0 L29,0 C27.42,0 26,1.42 26,3 L26,15 C26,16.58 27.42,18 29,18 L35,18 L35,11.2 L32.8,11.2 L32.8,8.2 L35,8.2 L35,7.04 C35,5.02 36.52,3.2 38.38,3.2 L40.8,3.2 L40.8,6.2 L38.38,6.2 C38.12,6.2 37.8,6.52 37.8,7 L37.8,8.2 L40.8,8.2 L40.8,11.2 L37.8,11.2 L37.8,18 L41,18 C42.58,18 44,16.58 44,15 L44,3 Z" id="Facebook__x28_alt_x29_"></path>
                </g>
            </g>
        </g>
    </g>
</svg>