<?xml version="1.0" encoding="UTF-8"?>
<svg width="12px" height="12px" viewBox="0 0 12 12" version="1.1" xmlns="http://www.w3.org/2000/svg" xmlns:xlink="http://www.w3.org/1999/xlink">
    <!-- Generator: Sketch 52.5 (67469) - http://www.bohemiancoding.com/sketch -->
    <title>Path</title>
    <desc>Created with Sketch.</desc>
    <g id="Page-1" stroke="none" stroke-width="1" fill="none" fill-rule="evenodd">
        <g id="1_Home-Copy" transform="translate(-40.000000, -707.000000)" fill="#DFDAE8">
            <g id="Group-4" transform="translate(40.000000, 706.000000)">
                <path d="M11.1963849,4.84668568 L8.18754017,4.39079668 L6.84068823,1.54524063 C6.68249252,1.21131335 6.35672193,1 5.99906208,1 C5.64202751,1 5.31625692,1.21131335 5.15806121,1.54524063 L3.81308511,4.39079668 L0.802989813,4.84668568 C0.449706921,4.90016622 0.156450857,5.15843809 0.0457763933,5.51258362 C-0.0642727907,5.86672915 0.0276432891,6.25544137 0.283382586,6.51566985 L2.46123093,8.72989465 L1.94600066,11.8558974 C1.88534855,12.223087 2.03041338,12.5941898 2.31929249,12.8126773 C2.48249043,12.9365957 2.67632706,12.9998592 2.87078897,12.9998592 C3.02023076,12.9998592 3.17029783,12.9626837 3.30723403,12.8876805 L5.99968736,11.4117481 L8.69214069,12.8876805 C9.00790682,13.060514 9.39120312,13.0324693 9.68008223,12.8133295 C9.96896134,12.5941898 10.1134009,12.2237392 10.0533741,11.8558974 L9.53939435,8.72989465 L11.7166174,6.51566985 C11.9723567,6.25544137 12.0642728,5.86672915 11.9542236,5.51258362 C11.8429239,5.15778589 11.5496678,4.90016622 11.1963849,4.84668568 Z" id="Path"></path>
            </g>
        </g>
    </g>
</svg>