<?xml version="1.0" encoding="UTF-8"?>
<svg width="18px" height="18px" viewBox="0 0 18 18" version="1.1" xmlns="http://www.w3.org/2000/svg" xmlns:xlink="http://www.w3.org/1999/xlink">
    <!-- Generator: Sketch 52.5 (67469) - http://www.bohemiancoding.com/sketch -->
    <title>iconfinder_038_011_instagram_mobile_photo_network_android_material_1646917</title>
    <desc>Created with Sketch.</desc>
    <g id="Page-1" stroke="none" stroke-width="1" fill="none" fill-rule="evenodd">
        <g id="1_Home-Copy" transform="translate(-682.000000, -626.000000)" fill="#7125FF">
            <g id="Group-3" transform="translate(489.000000, 64.000000)">
                <g id="Group" transform="translate(193.000000, 562.000000)">
                    <g id="iconfinder_038_011_instagram_mobile_photo_network_android_material_1646917">
                        <path d="M12.5,0 L5.5,0 C2.46243388,0 4.4408921e-16,2.46243388 0,5.5 L0,12.5 C-2.22044605e-15,15.5375661 2.46243388,18 5.5,18 L12.5,18 C13.9586907,18 15.3576372,17.4205374 16.3890873,16.3890873 C17.4205374,15.3576372 18,13.9586907 18,12.5 L18,5.5 C18,2.46243388 15.5375661,0 12.5,0 Z M16.5,12.5 C16.4974981,14.7081018 14.7081018,16.4974981 12.5,16.5 L5.5,16.5 C3.29189817,16.4974981 1.50250194,14.7081018 1.5,12.5 L1.5,5.5 C1.50247994,3.29188904 3.29188904,1.50247994 5.5,1.5 L12.5,1.5 C14.708111,1.50247994 16.4975201,3.29188904 16.5,5.5 L16.5,12.5 Z" id="Shape" fill-rule="nonzero"></path>
                        <path d="M9,4.5 C6.51471863,4.5 4.5,6.51471863 4.5,9 C4.5,11.4852814 6.51471863,13.5 9,13.5 C11.4852814,13.5 13.5,11.4852814 13.5,9 C13.5,6.51471863 11.4852814,4.5 9,4.5 Z M9,12 C7.34314575,12 6,10.6568542 6,9 C6,7.34314575 7.34314575,6 9,6 C10.6568542,6 12,7.34314575 12,9 C11.9981263,10.6560775 10.6560775,11.9981263 9,12 Z" id="Shape" fill-rule="nonzero"></path>
                        <circle id="Oval" cx="13.70001" cy="4.29999" r="1"></circle>
                    </g>
                </g>
            </g>
        </g>
    </g>
</svg>