<?xml version="1.0" encoding="UTF-8"?>
<svg width="12px" height="10px" viewBox="0 0 12 10" version="1.1" xmlns="http://www.w3.org/2000/svg" xmlns:xlink="http://www.w3.org/1999/xlink">
    <!-- Generator: Sketch 52.5 (67469) - http://www.bohemiancoding.com/sketch -->
    <title>Path</title>
    <desc>Created with Sketch.</desc>
    <g id="Page-1" stroke="none" stroke-width="1" fill="none" fill-rule="evenodd">
        <g id="1_Home-Copy" transform="translate(-1180.000000, -708.000000)" fill="#DFDAE8">
            <g id="Group-7" transform="translate(1180.000000, 706.000000)">
                <path d="M6.25147639,11.9227016 C12.0275146,7.98727508 12.033046,5.60696142 11.9944832,5.24028722 C11.9889024,5.18722203 11.9871239,5.13418475 11.9852531,5.08086394 C11.9252152,3.36955221 10.4656257,2 8.67385113,2 C7.64380244,2 6.72646154,2.45422446 6.11997084,3.16466207 C6.05677478,3.23868922 5.9432259,3.23868922 5.88002983,3.16466207 C5.27353873,2.45422446 4.35619823,2 3.32614955,2 C1.53437474,2 0.0747854918,3.36955182 0.0147470022,5.08086355 C0.012876343,5.13418436 0.0110976821,5.18722163 0.00551684206,5.24028682 C-0.0330460142,5.60696064 -0.0275153341,7.9872743 5.74852363,11.922702 C5.89979169,12.0257661 6.10020819,12.0257661 6.25147639,11.9227016 Z" id="Path"></path>
            </g>
        </g>
    </g>
</svg>