<?xml version="1.0" encoding="UTF-8"?>
<svg width="114px" height="25px" viewBox="0 0 114 25" version="1.1" xmlns="http://www.w3.org/2000/svg" xmlns:xlink="http://www.w3.org/1999/xlink">
    <!-- Generator: Sketch 52.5 (67469) - http://www.bohemiancoding.com/sketch -->
    <title>Group 11</title>
    <desc>Created with Sketch.</desc>
    <g id="Page-1" stroke="none" stroke-width="1" fill="none" fill-rule="evenodd">
        <g id="1_Home" transform="translate(-40.000000, -40.000000)">
            <g id="Group-11" transform="translate(40.000000, 40.000000)">
                <path d="M41,20.7571429 L41,4 L52.6742349,4 L52.6742349,6.91428571 L44.5791379,6.91428571 L44.5791379,11.5042857 L51.7133926,11.5042857 L51.7133926,14.4428571 L44.5791379,14.4428571 L44.5791379,20.7571429 L41,20.7571429 Z M53.899309,14.8314286 C53.899309,11.0671429 55.917078,8.61428571 60.0967423,8.61428571 C64.2283646,8.61428571 66.2941757,11.0671429 66.2941757,14.8314286 C66.2941757,18.5714286 64.2283646,21 60.0967423,21 C55.917078,21 53.899309,18.5714286 53.899309,14.8314286 Z M60.0967423,18.4985714 C61.7061533,18.4985714 62.76308,17.5514286 62.76308,14.8314286 C62.76308,12.0628571 61.7061533,11.1157143 60.0967423,11.1157143 C58.4392892,11.1157143 57.4063837,12.0628571 57.4063837,14.8314286 C57.4063837,17.5514286 58.4392892,18.4985714 60.0967423,18.4985714 Z M72.2033564,12.6457143 L72.2033564,20.7571429 L68.7203027,20.7571429 L68.7203027,8.85714286 L71.266535,8.85714286 L71.6989141,10.5085714 L71.8670615,10.5085714 C72.4195459,9.65857143 73.3083251,8.61428571 75.1339256,8.61428571 C77.5360316,8.61428571 78.3047055,10.3628571 78.3047055,12.3057143 C78.3047055,12.8885714 78.1846002,13.4957143 78.088516,13.9328571 L75.1099046,13.7628571 C75.1819678,13.3985714 75.2059888,13.0342857 75.2059888,12.7671429 C75.2059888,11.7228571 74.7255676,11.1642857 73.9809148,11.1642857 C73.0681145,11.1642857 72.443567,11.9657143 72.2033564,12.6457143 Z M80.3705166,20.7571429 L80.3705166,8.85714286 L82.9167489,8.85714286 L83.349128,10.6057143 L83.5412965,10.6057143 C84.0937808,9.78 85.0786443,8.61428571 87.1924975,8.61428571 C88.8739717,8.61428571 90.219151,9.34285714 90.9157618,10.7514286 L91.0839092,10.7514286 C91.7324778,9.73142857 92.6933202,8.61428571 94.9032577,8.61428571 C97.5455742,8.61428571 99.2750905,10.0957143 99.2750905,13.3985714 L99.2750905,20.7571429 L95.7920369,20.7571429 L95.7920369,13.7142857 C95.7920369,11.6257143 94.9993419,11.1157143 93.7982889,11.1157143 C92.5011517,11.1157143 91.7564988,11.99 91.5162883,12.7671429 L91.5162883,20.7571429 L88.0572557,20.7571429 L88.0572557,13.4957143 C88.0572557,11.8685714 87.4807502,11.1157143 86.159592,11.1157143 C85.0306022,11.1157143 84.3580125,11.7957143 83.8295492,12.5485714 L83.8295492,20.7571429 L80.3705166,20.7571429 Z M105.16025,13.0342857 L102.061533,13.2285714 C102.013491,12.9614286 101.98947,12.6214286 101.98947,12.3542857 C101.98947,10.0714286 103.694965,8.61428571 107.41823,8.61428571 C111.597894,8.61428571 112.726884,10.7028571 112.726884,12.9371429 L112.726884,17.77 C112.726884,18.2557143 112.919052,18.45 113.255347,18.45 C113.447516,18.45 113.663705,18.4257143 113.855874,18.3528571 L114,20.6842857 C113.471537,20.8542857 112.726884,21 112.030273,21 C110.276736,21 109.892399,20.0042857 109.844357,19.1057143 L109.70023,19.1057143 C109.291872,19.5914286 107.850609,21 105.304376,21 C102.998355,21 101.485028,19.9557143 101.485028,17.7942857 C101.485028,15.2928571 103.454755,13.8357143 109.339914,13.7142857 L109.339914,12.7671429 C109.339914,11.7228571 108.691346,10.9942857 107.250082,10.9942857 C105.808819,10.9942857 105.112208,11.4557143 105.112208,12.4757143 C105.112208,12.6214286 105.136229,12.84 105.16025,13.0342857 Z M104.823955,17.3571429 C104.823955,18.2314286 105.400461,18.5957143 106.433366,18.5957143 C107.538335,18.5957143 108.667325,18.0614286 109.339914,17.2842857 L109.339914,15.5357143 C105.808819,15.6085714 104.823955,16.3371429 104.823955,17.3571429 Z" id="Forma" fill="#DFDAE8"></path>
                <g id="Group-10">
                    <g id="Group-8" transform="translate(6.000000, 12.500000) scale(-1, 1) translate(-6.000000, -12.500000) ">
                        <path d="M11.968223,11.9784812 C11.5259365,12.0175966 11.0726028,11.9914316 10.6167402,11.9914316 C9.2696496,11.9912995 7.84363156,11.9718739 6.49747267,11.972006 C6.01299389,11.9721382 5.57163905,11.9634165 5.1589004,11.9075185 C3.95169641,11.7444495 3.01175434,11.2491639 2.23512421,10.6432716 C1.3823617,9.93100118 0.723656901,9.05381178 0.325026697,7.90162522 C0.122051385,7.31555487 0,6.64200344 0,5.90819314 C0,5.17636504 0.149469689,4.52237132 0.350847819,3.94052966 C0.543175246,3.38498518 0.836524484,2.87793852 1.1695371,2.43101858 C1.50574407,1.9797378 1.87722217,1.58409076 2.30659814,1.24407745 C2.74515791,0.896663935 3.24640711,0.626820494 3.80102883,0.411950056 C4.09038512,0.299757558 4.38439985,0.207915643 4.69758077,0.140917296 C5.02407155,0.071276016 5.38104191,0.0229103455 5.75012423,0.0054669889 C6.52049872,-0.030609044 7.18865352,0.11752734 7.77721538,0.282974935 C8.37283146,0.450404729 8.86170249,0.73399142 9.32368761,1.03132136 C10.247791,1.62624554 10.9584042,2.46722676 11.4418182,3.49559192 C11.6937738,4.03157869 11.8634744,4.5920126 11.9486575,5.27613576 C12.0334413,5.95655881 11.9876554,6.7458707 11.9876554,7.50809252 C11.9875223,8.97756317 11.9999005,10.5261897 11.968223,11.9784812 Z" id="Path" fill="#DFDAE8"></path>
                        <path d="M10.2370097,23.2783255 C9.21732696,24.2282116 7.9126075,25.0100543 5.95652774,24.9999022 C4.99321276,24.9949598 4.19060574,24.7653361 3.50419885,24.4520914 C2.81619287,24.1383124 2.23052827,23.7019071 1.74134176,23.219684 C1.49108508,22.9684204 1.25655273,22.7013943 1.07132548,22.3849437 C0.719526952,21.8826836 0.416500494,21.2921272 0.232206039,20.5981801 C0.0477783268,19.903565 -0.0311098276,19.0892624 0.0111326469,18.2050976 C0.0315209706,17.7736348 0.0109993899,17.3302834 0.0111326469,16.887867 C0.0111326469,15.6867173 0.0175289838,14.4867698 0.0175289838,13.3013825 C0.0175289838,13.2034685 0.00433653905,13.0956696 0.0435141022,13.0014958 C0.0479115838,13.0014958 0.0523090654,13.0014958 0.0565732899,13.0014958 C2.00399134,12.9924124 4.05241822,13.0276775 6.01529409,13.0274103 C6.98620472,13.0274103 7.76682432,13.2543624 8.47428583,13.5688093 C9.17361866,13.8793824 9.76674564,14.3037655 10.2500688,14.7881259 C10.7365902,15.2756922 11.1632792,15.8882893 11.4796313,16.5617987 C11.805578,17.2557459 12,18.0585606 12,19.0397043 C12,19.2921702 11.9844089,19.5255341 11.9544261,19.7504825 C11.924843,19.9720915 11.8787361,20.1806096 11.8438228,20.3895284 C11.7743959,20.8065646 11.6268804,21.1699017 11.4731018,21.51761 C11.1668771,22.209687 10.7397884,22.7693864 10.2370097,23.2783255 Z" id="Path" fill="#7125FF"></path>
                    </g>
                    <g id="Group-8-Copy" transform="translate(13.000000, 0.000000)">
                        <g id="Group-9" transform="translate(6.000000, 12.500000) scale(-1, 1) translate(-6.000000, -12.500000) ">
                            <path d="M11.968223,11.9784812 C11.5259365,12.0175966 11.0726028,11.9914316 10.6167402,11.9914316 C9.2696496,11.9912995 7.84363156,11.9718739 6.49747267,11.972006 C6.01299389,11.9721382 5.57163905,11.9634165 5.1589004,11.9075185 C3.95169641,11.7444495 3.01175434,11.2491639 2.23512421,10.6432716 C1.3823617,9.93100118 0.723656901,9.05381178 0.325026697,7.90162522 C0.122051385,7.31555487 0,6.64200344 0,5.90819314 C0,5.17636504 0.149469689,4.52237132 0.350847819,3.94052966 C0.543175246,3.38498518 0.836524484,2.87793852 1.1695371,2.43101858 C1.50574407,1.9797378 1.87722217,1.58409076 2.30659814,1.24407745 C2.74515791,0.896663935 3.24640711,0.626820494 3.80102883,0.411950056 C4.09038512,0.299757558 4.38439985,0.207915643 4.69758077,0.140917296 C5.02407155,0.071276016 5.38104191,0.0229103455 5.75012423,0.0054669889 C6.52049872,-0.030609044 7.18865352,0.11752734 7.77721538,0.282974935 C8.37283146,0.450404729 8.86170249,0.73399142 9.32368761,1.03132136 C10.247791,1.62624554 10.9584042,2.46722676 11.4418182,3.49559192 C11.6937738,4.03157869 11.8634744,4.5920126 11.9486575,5.27613576 C12.0334413,5.95655881 11.9876554,6.7458707 11.9876554,7.50809252 C11.9875223,8.97756317 11.9999005,10.5261897 11.968223,11.9784812 Z" id="Path" fill="#7125FF"></path>
                            <path d="M10.2370097,23.2783255 C9.21732696,24.2282116 7.9126075,25.0100543 5.95652774,24.9999022 C4.99321276,24.9949598 4.19060574,24.7653361 3.50419885,24.4520914 C2.81619287,24.1383124 2.23052827,23.7019071 1.74134176,23.219684 C1.49108508,22.9684204 1.25655273,22.7013943 1.07132548,22.3849437 C0.719526952,21.8826836 0.416500494,21.2921272 0.232206039,20.5981801 C0.0477783268,19.903565 -0.0311098276,19.0892624 0.0111326469,18.2050976 C0.0315209706,17.7736348 0.0109993899,17.3302834 0.0111326469,16.887867 C0.0111326469,15.6867173 0.0175289838,14.4867698 0.0175289838,13.3013825 C0.0175289838,13.2034685 0.00433653905,13.0956696 0.0435141022,13.0014958 C0.0479115838,13.0014958 0.0523090654,13.0014958 0.0565732899,13.0014958 C2.00399134,12.9924124 4.05241822,13.0276775 6.01529409,13.0274103 C6.98620472,13.0274103 7.76682432,13.2543624 8.47428583,13.5688093 C9.17361866,13.8793824 9.76674564,14.3037655 10.2500688,14.7881259 C10.7365902,15.2756922 11.1632792,15.8882893 11.4796313,16.5617987 C11.805578,17.2557459 12,18.0585606 12,19.0397043 C12,19.2921702 11.9844089,19.5255341 11.9544261,19.7504825 C11.924843,19.9720915 11.8787361,20.1806096 11.8438228,20.3895284 C11.7743959,20.8065646 11.6268804,21.1699017 11.4731018,21.51761 C11.1668771,22.209687 10.7397884,22.7693864 10.2370097,23.2783255 Z" id="Path" fill="#DFDAE8"></path>
                        </g>
                    </g>
                </g>
            </g>
        </g>
    </g>
</svg>