<?xml version="1.0" encoding="UTF-8"?>
<svg width="20px" height="16px" viewBox="0 0 20 16" version="1.1" xmlns="http://www.w3.org/2000/svg" xmlns:xlink="http://www.w3.org/1999/xlink">
    <!-- Generator: Sketch 52.5 (67469) - http://www.bohemiancoding.com/sketch -->
    <title>Path</title>
    <desc>Created with Sketch.</desc>
    <g id="Page-1" stroke="none" stroke-width="1" fill="none" fill-rule="evenodd">
        <g id="1_Home-Copy" transform="translate(-734.000000, -627.000000)" fill="#7125FF">
            <g id="Group-3" transform="translate(489.000000, 64.000000)">
                <g id="Group" transform="translate(193.000000, 562.000000)">
                    <path d="M72,2.89399011 C71.2647626,3.21571664 70.4734994,3.43273218 69.6432617,3.52984963 C70.4909567,3.03027427 71.1409374,2.2389469 71.4474555,1.29494929 C70.6545683,1.75815557 69.7768305,2.09426987 68.8418489,2.27571564 C68.09362,1.49078283 67.0270994,1 65.8469034,1 C63.5811055,1 61.744027,2.80846281 61.744027,5.03936654 C61.744027,5.35549783 61.7801596,5.66363591 61.8503948,5.95978418 C58.4401275,5.79112754 55.4163571,4.1832942 53.3925258,1.73937153 C53.0393196,2.33566469 52.8371394,3.02947495 52.8371394,3.77044512 C52.8371394,5.17165409 53.5614153,6.40820303 54.6624444,7.13238747 C53.9901346,7.11120548 53.3572052,6.92936004 52.8038487,6.62681721 C52.8034427,6.64360294 52.8034427,6.66078833 52.8034427,6.67797372 C52.8034427,8.6347105 54.2178917,10.2669231 56.0951627,10.6386072 C55.7508881,10.7305291 55.3883442,10.7800869 55.0140268,10.7800869 C54.7493251,10.7800869 54.492337,10.7549083 54.2418448,10.7073488 C54.7643465,12.3119848 56.2794795,13.4801918 58.0747417,13.5125643 C56.6704423,14.5960434 54.9015691,15.2418944 52.9788279,15.2418944 C52.6479508,15.2418944 52.3211335,15.2227107 52,15.1851426 C53.8163733,16.331768 55.9729615,17 58.2899133,17 C65.8375657,17 69.9643952,10.8452316 69.9643952,5.50736874 C69.9643952,5.33231753 69.9607413,5.15766598 69.9530276,4.98421342 C70.7544405,4.41589649 71.4502974,3.70410151 72,2.89399011 Z" id="Path"></path>
                </g>
            </g>
        </g>
    </g>
</svg>